<?xml version="1.0" standalone="no"?>
<!DOCTYPE svg PUBLIC "-//W3C//DTD SVG 20010904//EN"
 "http://www.w3.org/TR/2001/REC-SVG-20010904/DTD/svg10.dtd">
<svg version="1.0" xmlns="http://www.w3.org/2000/svg"
 width="310.000000pt" height="264.000000pt" viewBox="0 0 310.000000 264.000000"
 preserveAspectRatio="xMidYMid meet">

<g transform="translate(0.000000,264.000000) scale(0.100000,-0.100000)"
fill="#000000" stroke="none">
<path d="M1365 2614 c-163 -31 -301 -82 -429 -158 -102 -60 -156 -102 -250
-194 -176 -172 -289 -370 -352 -617 -35 -136 -44 -375 -20 -515 106 -606 607
-1050 1217 -1077 254 -11 498 48 703 169 652 383 844 1219 423 1848 -64 96
-241 273 -337 337 -156 104 -312 169 -492 204 -118 23 -355 25 -463 3z m465
-424 c245 -83 434 -274 504 -509 31 -106 38 -101 -129 -101 -116 0 -145 3
-145 14 0 36 -74 156 -128 208 -306 292 -802 80 -802 -342 0 -136 50 -250 148
-342 103 -97 202 -132 351 -126 86 3 104 7 175 41 56 26 95 54 137 97 32 33
59 66 59 73 0 7 -20 33 -45 57 -41 40 -45 48 -45 92 l0 48 220 0 220 0 0 -53
c0 -180 -206 -514 -463 -752 -91 -83 -255 -215 -269 -215 -4 0 -9 71 -10 158
l-3 157 -70 8 c-104 11 -181 33 -270 77 -400 198 -543 690 -314 1077 71 119
218 249 345 304 111 48 180 59 329 55 111 -3 154 -8 205 -26z m-290 -630 l0
-60 -65 0 -65 0 0 60 0 60 65 0 65 0 0 -60z m240 0 l0 -60 -60 0 -60 0 0 60 0
60 60 0 60 0 0 -60z"/>
</g>
</svg>
